<?xml version="1.0" encoding="UTF-8" standalone="no"?><!DOCTYPE svg PUBLIC "-//W3C//DTD SVG 1.1//EN" "http://www.w3.org/Graphics/SVG/1.1/DTD/svg11.dtd"><svg width="100%" height="100%" viewBox="0 0 324 324" version="1.1" xmlns="http://www.w3.org/2000/svg" xmlns:xlink="http://www.w3.org/1999/xlink" xml:space="preserve" xmlns:serif="http://www.serif.com/" style="fill-rule:evenodd;clip-rule:evenodd;stroke-linejoin:round;stroke-miterlimit:2;"><g><circle cx="161.563" cy="161.563" r="161.563" style="fill:url(#_Linear1);"/><path d="M37.188,119.688c-0.938,-1.251 -2.813,-1.876 -4.063,-0.938c-1.25,0.938 -1.875,2.813 -0.938,4.063c0.938,1.249 2.813,1.874 4.063,0.937c1.563,-0.938 1.875,-2.813 0.938,-4.063" style="fill:#fff;fill-rule:nonzero;"/><path d="M210.625,41.875c-0.937,-1.25 -2.813,-1.875 -4.062,-0.937c-1.25,0.937 -1.875,2.812 -0.938,4.062c0.938,1.25 2.813,1.875 4.063,0.938c1.562,-0.625 1.875,-2.5 0.937,-4.063" style="fill:#fff;fill-rule:nonzero;"/><path d="M246.563,158.438c-0.313,1.874 0.624,3.749 2.499,4.062c1.875,0.312 3.75,-0.625 4.063,-2.5c0.313,-1.875 -0.625,-3.75 -2.5,-4.063c-1.875,-0.625 -3.75,0.625 -4.063,2.5" style="fill:#fff;fill-rule:nonzero;"/><path d="M194.688,274.063c-0.313,1.562 0.624,2.812 1.874,3.125c1.563,0.312 2.813,-0.625 3.125,-1.875c0.313,-1.25 -0.625,-2.813 -1.875,-3.125c-1.249,-0.313 -2.5,0.312 -3.125,1.875" style="fill:#fff;fill-rule:nonzero;"/><path d="M60,66.25c-0.313,0.938 0.313,1.875 1.25,1.875c0.938,0.313 1.875,-0.313 1.875,-1.25c0.313,-0.938 -0.313,-1.875 -1.25,-1.875c-0.938,0 -1.875,0.313 -1.875,1.25" style="fill:#fff;fill-rule:nonzero;"/><path d="M68.438,218.75c-0.313,-1.25 -1.563,-2.188 -2.501,-1.875c-1.249,0.313 -2.187,1.563 -1.875,2.5c0.313,1.25 1.563,2.188 2.5,1.875c1.251,-0 1.876,-1.25 1.876,-2.5" style="fill:#fff;fill-rule:nonzero;"/><path d="M136.875,31.875c0,0 -25.625,6.875 -23.438,34.063c1.876,24.062 14.688,37.187 40.938,26.874c26.25,-10.312 30.938,-17.187 24.375,-37.187c-6.562,-20 -14.063,-33.438 -41.875,-23.75Z" style="fill:none;fill-rule:nonzero;"/><path d="M285.625,261.563c-0.938,-1.875 -20,-31.25 -22.5,-55.938c-1.875,-17.188 -24.063,-35.938 -37.5,-45.938c-4.375,-3.125 -5,-9.375 -1.875,-13.75c0.313,-0.312 0.625,-0.937 1.25,-1.25c13.125,-12.5 36.563,-36.875 44.063,-49.687c6.875,-13.438 10.625,-28.438 10.625,-43.438c-9.063,-9.687 -19.375,-18.437 -30.625,-25.625c-10.938,5.313 -13.75,22.188 -18.438,41.563c-6.562,26.562 -21.875,23.437 -28.125,23.437c-6.25,0 -2.5,-9.375 -16.875,-50.937c-14.375,-41.563 -52.188,-31.25 -80.937,-14.063c-36.563,21.875 -20.313,68.438 -11.25,98.438c-5,5 -24.375,8.75 -41.875,18.125c-21.563,11.562 -44.063,30.625 -49.688,39.062c1.563,11.875 4.063,23.125 8.125,34.375c1.25,1.25 2.813,2.188 4.375,2.813c10.313,4.688 25.313,-3.438 39.688,-18.125c4.375,-4.375 9.062,-7.813 14.375,-10.938c11.562,-7.5 23.75,-13.125 36.875,-17.187c-0.001,0 14.062,21.563 27.187,47.187c13.125,25.625 -14.062,34.063 -17.187,34.063c-3.125,0 -45.625,-4.063 -36.25,32.188c9.375,36.25 61.562,23.125 88.125,5.625c26.562,-17.501 20,-74.688 20,-74.688c25.937,-4.063 34.062,23.437 36.562,37.5c2.5,14.062 -3.125,38.437 23.125,39.062c3.75,0 7.5,-0.625 10.938,-1.562c10,-7.5 19.375,-15.938 27.187,-25.625c0.313,-1.563 0.625,-3.125 0.625,-4.688Zm-131.25,-168.75c-26.563,10 -39.375,-3.125 -40.938,-26.875c-1.874,-26.875 23.438,-34.062 23.438,-34.062c28.125,-9.375 35.625,4.062 42.188,24.062c6.562,20 1.562,26.875 -24.688,36.875Z" style="fill:#fff;fill-rule:nonzero;"/><path d="M285.313,120l-7.188,3.438l-1.875,8.124l-3.438,-7.187l-8.125,-1.875l7.188,-3.438l1.875,-8.125l3.438,7.188l8.125,1.875Z" style="fill:#fff;fill-rule:nonzero;"/><path d="M169.375,60.625c1.563,3.438 2.188,7.5 1.25,11.25" style="fill:#f9f9f9;fill-rule:nonzero;"/><path d="M170.625,75.313l-0.625,-0.001c-1.875,-0.312 -3.125,-2.187 -2.813,-4.062c0.938,-3.125 0.313,-6.563 -0.937,-9.375c-0.625,-1.875 0.313,-3.75 2.188,-4.375c1.562,-0.625 3.125,0.313 4.062,1.563c1.875,4.062 2.5,8.749 1.25,13.124c-0,1.876 -1.563,3.126 -3.125,3.126Z" style="fill:#fff;fill-rule:nonzero;"/><path d="M161.25,41.875c0.938,1.25 1.875,2.5 2.5,3.75" style="fill:#f9f9f9;fill-rule:nonzero;"/><path d="M163.75,49.063c-1.25,-0 -2.5,-0.625 -3.125,-1.875c-0.625,-1.25 -1.25,-2.188 -1.875,-3.125c-1.25,-1.25 -1.25,-3.438 0,-4.688c1.25,-1.25 3.438,-1.25 4.688,0c1.25,1.563 2.187,3.125 3.125,4.688c0.937,1.562 0.312,3.75 -1.563,4.687c-0.625,0 -0.938,0.313 -1.25,0.313Z" style="fill:#fff;fill-rule:nonzero;"/></g><defs><linearGradient id="_Linear1" x1="0" y1="0" x2="1" y2="0" gradientUnits="userSpaceOnUse" gradientTransform="matrix(227.937,545.656,-545.656,227.937,90.3134,-8.62531)"><stop offset="0" style="stop-color:#ef1970;stop-opacity:1"/><stop offset="0.14" style="stop-color:#f23b5c;stop-opacity:1"/><stop offset="0.44" style="stop-color:#f77d35;stop-opacity:1"/><stop offset="0.7" style="stop-color:#fcad18;stop-opacity:1"/><stop offset="0.89" style="stop-color:#fecb07;stop-opacity:1"/><stop offset="1" style="stop-color:#ffd600;stop-opacity:1"/></linearGradient></defs></svg>